<?xml version="1.0" encoding="UTF-8"?>
<!DOCTYPE svg PUBLIC "-//W3C//DTD SVG 1.1//EN" "http://www.w3.org/Graphics/SVG/1.1/DTD/svg11.dtd">
<!-- Creator: CorelDRAW -->
<svg xmlns="http://www.w3.org/2000/svg" xml:space="preserve" width="7310px" height="4481px" version="1.1" style="shape-rendering:geometricPrecision; text-rendering:geometricPrecision; image-rendering:optimizeQuality; fill-rule:evenodd; clip-rule:evenodd"
viewBox="0 0 7310 4480.91"
 xmlns:xlink="http://www.w3.org/1999/xlink"
 xmlns:xodm="http://www.corel.com/coreldraw/odm/2003">
 <defs>
  <style type="text/css">
   <![CDATA[
    .str0 {stroke:white;stroke-width:20.83;stroke-linecap:round;stroke-linejoin:round;stroke-miterlimit:10}
    .fil4 {fill:none;fill-rule:nonzero}
    .fil2 {fill:#5599C2;fill-rule:nonzero}
    .fil1 {fill:#99A024;fill-rule:nonzero}
    .fil3 {fill:#B31E1E;fill-rule:nonzero}
    .fil0 {fill:white;fill-rule:nonzero}
   ]]>
  </style>
 </defs>
 <g id="Capa_x0020_1">
  <metadata id="CorelCorpID_0Corel-Layer"/>
  <polygon class="fil0" points="3195.24,2658.43 3138.59,2530.36 3112.74,2658.43 3029,3080.81 2892.3,3080.81 3079.49,2175.7 3094.26,2175.7 3343.01,2664.58 3416.9,2828.36 3490.78,2664.58 3734.61,2175.7 3748.16,2175.7 3942.73,3080.81 3807.26,3080.81 3716.14,2658.43 3689.05,2530.36 3639.79,2658.43 3420.59,3080.81 3413.2,3080.81 "/>
  <polygon class="fil0" points="4080.63,2175.7 4218.56,2175.7 4218.56,3080.81 4080.63,3080.81 "/>
  <polygon class="fil0" points="4560.89,2494.64 4564.58,2593.16 4564.58,3080.81 4426.66,3080.81 4426.66,2174.47 4443.9,2174.47 4975.88,2768.02 4970.96,2664.58 4970.96,2175.7 5108.88,2175.7 5108.88,3080.81 5090.4,3080.81 "/>
  <polygon class="fil0" points="5316.98,2175.7 5454.91,2175.7 5454.91,3080.81 5316.98,3080.81 "/>
  <polygon class="fil0" points="5797.24,2494.64 5800.93,2593.16 5800.93,3080.81 5663.01,3080.81 5663.01,2174.47 5680.25,2174.47 6212.23,2768.02 6207.31,2664.58 6207.31,2175.7 6345.23,2175.7 6345.23,3080.81 6326.76,3080.81 "/>
  <path class="fil0" d="M6719.57 3031.55c-70.61,-41.04 -125.81,-97.48 -165.63,-169.32 -39.83,-71.83 -59.72,-152.49 -59.72,-241.98 0,-87.01 20.11,-165.42 60.34,-235.2 40.21,-69.77 96.05,-124.38 167.48,-163.78 71.42,-39.41 151.87,-59.12 241.36,-59.12 48.43,0 92.14,4.32 131.15,12.93 38.98,8.62 70.81,18.48 95.44,29.56 24.62,11.08 41.44,20.74 50.48,28.93l-54.18 115.76c-50.91,-41.04 -126.03,-61.56 -225.35,-61.56 -65.69,0 -122.75,14.37 -171.17,43.09 -48.45,28.75 -85.39,67.73 -110.84,116.98 -25.45,49.27 -38.17,104.28 -38.17,165.02 0,68.97 13.74,130.53 41.25,184.72 27.5,54.18 65.68,96.26 114.53,126.22 48.83,29.98 104.05,44.95 165.63,44.95 38.57,0 75.52,-4.72 110.83,-14.16 35.29,-9.43 65.26,-24.42 89.89,-44.95l0 -174.87 -185.95 0 0 -126.84 322.65 0 0 354.67c-29.56,36.94 -74.1,67.93 -133.62,92.97 -59.53,25.05 -128.28,37.56 -206.27,37.56 -89.49,0 -169.53,-20.52 -240.13,-61.58z"/>
  <path class="fil0" d="M1198.3 2628.87c80.45,0 135.66,-17.43 165.63,-52.34 29.96,-34.88 44.95,-76.53 44.95,-124.98 0,-107.55 -71.84,-161.33 -215.5,-161.33l-82.51 0 0 338.65 87.43 0zm230.28 451.94l-182.25 -342.35c-37.77,1.67 -71.42,2.47 -100.98,2.47l-34.48 0 0 339.88 -134.23 0 0 -905.11 205.65 0c104.25,0 190.05,21.55 257.38,64.65 67.3,43.1 100.97,113.1 100.97,209.96 0,60.76 -14.15,113.1 -42.48,157.01 -28.32,43.93 -70.4,77.79 -126.23,101.6l215.51 371.89 -158.86 0z"/>
  <polygon class="fil0" points="1743.81,2175.7 1881.74,2175.7 1881.74,3080.81 1743.81,3080.81 "/>
  <path class="fil0" d="M2151.41 3067.27c-48.44,-17.24 -83.33,-36.53 -104.67,-57.88l65.27 -116.99c17.23,15.6 44.11,31.82 80.66,48.64 36.52,16.84 71.61,25.25 105.28,25.25 43.51,0 79.01,-10.25 106.52,-30.8 27.5,-20.5 41.26,-48.82 41.26,-84.96 0,-27.9 -7.39,-52.13 -22.17,-72.66 -14.77,-20.5 -32.84,-37.55 -54.18,-51.1 -21.36,-13.55 -51.72,-30.17 -91.13,-49.87 -46.79,-22.97 -78.81,-40.22 -96.05,-51.72 -79.64,-53.36 -119.45,-127.25 -119.45,-221.66 0,-77.99 25.86,-137.71 77.58,-179.18 51.72,-41.45 116.99,-62.18 195.8,-62.18 84.55,0 156.39,24.22 215.5,72.65l-65.26 112.06c-15.61,-16.41 -37.56,-30.58 -65.88,-42.49 -28.33,-11.89 -58.5,-17.85 -90.52,-17.85 -41.06,0 -73.27,9.23 -96.67,27.71 -23.4,18.47 -35.09,45.77 -35.09,81.89 0,25.45 7.39,48.24 22.16,68.35 14.78,20.12 33.45,37.55 56.03,52.33 22.57,14.78 53.15,32.84 91.74,54.18 36.95,20.53 65.27,36.76 84.98,48.64 19.7,11.92 38.17,26.08 55.41,42.49 23.8,21.36 43.1,46.8 57.88,76.35 14.78,29.55 22.16,62 22.16,97.29 0,55.01 -12.52,101.8 -37.55,140.38 -25.05,38.6 -59.53,67.73 -103.44,87.43 -43.93,19.7 -93.81,29.56 -149.63,29.56 -49.25,0 -98.11,-8.63 -146.54,-25.86z"/>
  <path class="fil0" d="M407.8 2555.7l-99.31 220.97 307.86 0 -98.07 -219.72 -53.38 -125.38 -2.48 0 -54.62 124.13zm62.07 -388.55l439.45 913.66 -160.14 0 -78.21 -178.76 -418.34 0 -78.21 178.76 -155.18 0 436.97 -913.66 13.66 0z"/>
  <path class="fil0" d="M3658.47 0c-678.75,0 -1230.83,552.18 -1230.83,1230.83 0,135.02 21.88,264.97 62.26,386.65l122.12 0c-44.65,-120.52 -69.11,-250.74 -69.11,-386.65 0,-615.06 500.41,-1115.47 1115.56,-1115.47 615.06,0 1115.47,500.41 1115.47,1115.47 0,167.57 -63.69,297.52 -194.79,397.32 -122.13,92.95 -278.94,125.68 -430.15,89.84 -155.83,-36.92 -285.42,-140.45 -355.69,-284.01l-391.18 -799.8 -490.54 983.3 697.69 0 -56.39 -115.36 -454.96 0 303.13 -607.59 288.72 590.06c85.47,174.69 243.18,300.64 432.63,345.56 49.01,11.65 98.55,17.34 147.65,17.34 136.08,0 268.88,-43.85 378.91,-127.63 6.58,-4.99 12.98,-10.06 19.3,-15.22 146.67,-119.72 221.03,-279.02 221.03,-473.81 0,-678.65 -552.18,-1230.83 -1230.83,-1230.83z"/>
  <path class="fil0" d="M4385.96 1599.5c-37.16,11.54 -76.11,17.3 -116.08,17.3l-3.97 0 -353.75 -723.25 -128.12 252.02 -64.06 -123.9 -1.15 -2.3 195.26 -384.12 471.87 964.25z"/>
  <path class="fil1" d="M6469.64 4329.44c-99.02,0 -179.3,-80.28 -179.3,-179.3 0,-99.03 80.28,-179.3 179.3,-179.3 99.03,0 179.3,80.27 179.3,179.3 0,99.02 -80.27,179.3 -179.3,179.3zm0 -510.08c-182.68,0 -330.77,148.09 -330.77,330.78 0,182.68 148.09,330.77 330.77,330.77 182.69,0 330.78,-148.09 330.78,-330.77 0,-182.69 -148.09,-330.78 -330.78,-330.78z"/>
  <path class="fil0" d="M3109.95 4262.66c-13.64,-17.77 -20.28,-36.2 -28.62,-53.62 -54,-112.82 -108.13,-225.58 -161.29,-338.8 -8.44,-17.97 -19.64,-24.6 -38.93,-23.95 -33.52,1.13 -67.1,0.29 -100.65,0.31 -39.64,0.01 -39.67,0.03 -39.68,38.73 -0.01,179.59 0,359.18 0,538.78 0,5.59 -0.13,11.19 0.12,16.77 0.8,17.63 3.39,20.55 21.24,20.78 28.66,0.36 57.33,0.36 85.98,0 17.79,-0.22 20.54,-3.08 20.89,-20.9 0.39,-20.26 0.14,-40.53 0.14,-60.8 0.01,-97.83 -0.06,-195.67 0.14,-293.5 0.02,-7.66 -2.54,-16.31 3.87,-23.44 8.02,5.28 9.95,13.12 13.3,19.83 58.06,116.29 116.47,232.41 173.44,349.23 10.54,21.62 22.46,32.03 47.64,30.3 33.4,-2.3 67.07,-0.55 100.62,-0.57 35.01,-0.03 35.08,-0.05 35.09,-34.6 0.02,-181.69 0.01,-363.38 0.01,-545.07 0,-3.49 0.04,-6.99 -0.05,-10.48 -0.61,-21.64 -3.15,-24.63 -24.1,-24.92 -27.25,-0.37 -54.52,-0.39 -81.78,0.02 -19.9,0.31 -22.21,3.13 -22.71,23.82 -0.15,6.29 -0.05,12.58 -0.05,18.87 0,115.3 0.04,230.61 -0.09,345.91 -0.01,8.09 1.77,16.61 -4.53,27.3z"/>
  <path class="fil0" d="M4090.68 4153.72c0,50.31 -0.01,100.61 0,150.92 0.01,44.02 -0.17,88.04 0.12,132.05 0.16,22.68 2.62,25.02 25.77,25.05 111.12,0.12 222.24,0.12 333.36,0.01 24.29,-0.03 25.5,-1.48 25.67,-26.79 0.13,-19.57 0.06,-39.13 0.03,-58.69 -0.04,-34.07 -0.05,-34.12 -33.22,-34.15 -64.3,-0.05 -128.6,0.11 -192.89,-0.15 -21.57,-0.09 -24.23,-2.81 -24.58,-24.25 -0.43,-26.55 -0.2,-53.1 -0.15,-79.65 0.06,-35.76 0.1,-35.79 36.36,-35.83 57.31,-0.06 114.61,0.13 171.92,-0.19 18.91,-0.1 21.81,-3.21 22.22,-22.14 0.45,-20.25 0.18,-40.52 0.17,-60.78 -0.03,-36.34 -0.05,-36.36 -35.4,-36.38 -56.6,-0.03 -113.21,0.11 -169.82,-0.11 -22.81,-0.09 -24.89,-2.29 -25.34,-25.42 -0.36,-18.16 -0.16,-36.34 -0.11,-54.5 0.08,-36.17 0.11,-36.21 35.72,-36.23 64.3,-0.04 128.59,0.11 192.89,-0.14 19.37,-0.07 21.86,-2.7 22.12,-21.81 0.33,-24.45 0.29,-48.91 0.03,-73.36 -0.22,-21.58 -2.72,-24.42 -24.16,-24.45 -111.83,-0.19 -223.65,-0.2 -335.46,0 -22.05,0.04 -24.64,3.26 -25.19,26.11 -0.13,5.59 -0.06,11.18 -0.06,16.77 0,88.04 0,176.07 0,264.11z"/>
  <path class="fil0" d="M786.98 4328.33c-8.62,-4.53 -8.23,-12.36 -9.93,-18.68 -21.43,-79.56 -42.56,-159.21 -63.77,-238.83 -17.97,-67.47 -35.84,-134.98 -53.96,-202.41 -5.28,-19.62 -7.54,-21.47 -27.33,-21.67 -32.83,-0.32 -65.67,-0.37 -98.5,0.08 -15.29,0.21 -16.95,3.03 -13.69,17.83 0.45,2.04 1.19,4.02 1.76,6.04 53.48,189.51 106.91,379.05 160.48,568.54 6.03,21.32 7.51,22.41 28.78,22.49 50.3,0.19 100.59,0.19 150.89,0.01 20.66,-0.07 22.04,-1.36 28,-20.69 1.45,-4.67 2.7,-9.4 4.03,-14.1 38.75,-137.08 77.52,-274.16 116.24,-411.25 14.05,-49.73 28.2,-99.43 41.9,-149.25 4.44,-16.15 2.22,-19.37 -13.87,-19.59 -34.23,-0.46 -68.46,0.01 -102.69,-0.14 -11.46,-0.05 -18.42,4.95 -21.06,16.16 -1.6,6.79 -3.6,13.5 -5.4,20.24 -37.58,141.02 -75.14,282.05 -112.78,423.05 -1.94,7.28 -2.48,15.21 -9.1,22.17z"/>
  <path class="fil0" d="M1576.23 4470.51c43.77,-0.05 86.8,-3.18 128.5,-17 49.21,-16.32 77.9,-50.26 86.38,-100.94 7.67,-45.78 6.53,-91.83 1.25,-137.8 -4.46,-38.78 -25.61,-65.49 -60.25,-82.33 -22.09,-10.74 -45.21,-18.67 -68.88,-24.94 -29.03,-7.69 -58.45,-14.04 -87.31,-22.3 -46.03,-13.16 -57.65,-20.15 -55.72,-77.82 1.22,-36.56 14.99,-49.91 51.12,-53.08 35.66,-3.11 71.19,-0.75 106.61,2.9 23.61,2.43 47.03,6.6 70.61,9.36 16.3,1.9 19.96,-0.93 22.2,-17.09 3.26,-23.52 6.08,-47.11 8.49,-70.73 2.24,-21.88 1.3,-22.77 -21.13,-26.98 -71.76,-13.47 -144.07,-17.38 -216.92,-12.81 -23.88,1.5 -47.07,6.06 -69.8,13.28 -44.85,14.24 -71.81,44.9 -80.23,90.76 -9.18,49.91 -8.44,100.24 0.49,150.08 6.3,35.16 26.76,60.85 59.09,76.74 12.58,6.2 25.72,10.88 39,15.28 27.25,9.04 55.44,14.32 83.28,21.02 17.66,4.25 35.38,8.26 52.44,14.66 20.94,7.84 33.27,22.02 34.95,45.02 0.88,11.89 1.53,23.67 0.2,35.54 -3.96,35.4 -17.68,50.18 -52.97,52.99 -30.64,2.45 -61.45,2.22 -92.11,-1.26 -34.11,-3.87 -67.4,-11.69 -100.58,-20.24 -15.46,-3.98 -18.29,-2.26 -22.16,13.29 -5.06,20.33 -9.37,40.85 -13.74,61.35 -5.13,24.12 -4.59,25.44 18.49,33.58 57.89,20.41 117.61,30.01 178.7,29.47z"/>
  <path class="fil0" d="M3763.41 4461.81c60.79,0 121.59,0.01 182.39,-0.01 5.59,-0.01 11.18,-0.1 16.76,-0.35 9.14,-0.42 14.62,-5.45 14.73,-14.42 0.34,-27.23 0.33,-54.47 -0.06,-81.69 -0.13,-9.03 -5.86,-13.86 -14.92,-14.25 -6.28,-0.28 -12.57,-0.37 -18.86,-0.37 -67.78,-0.03 -135.56,-0.01 -203.35,-0.05 -6.28,0 -12.64,0.21 -18.83,-0.61 -9.99,-1.33 -11.91,-5.12 -6.96,-14.3 3.63,-6.72 8.36,-12.87 12.72,-19.2 77.38,-112.13 154.61,-224.36 232.37,-336.23 10.08,-14.51 15.08,-29.3 14.27,-46.86 -0.8,-17.43 -0.12,-34.92 -0.18,-52.38 -0.1,-33.65 -0.8,-34.46 -33.76,-34.47 -111.8,-0.06 -223.62,-0.03 -335.43,-0.03 -6.99,0 -13.99,-0.2 -20.96,0.2 -16.36,0.93 -20.05,3.99 -20.46,19.87 -0.58,23.04 -0.57,46.11 0.03,69.15 0.39,15 4.08,18.23 18.77,19.35 6.26,0.48 12.57,0.27 18.86,0.27 64.29,0.03 128.59,-0.04 192.87,0.15 7.46,0.02 17.06,-2.33 21.31,5.16 4.48,7.92 -3.73,14.04 -7.86,20.02 -33.78,48.86 -67.82,97.51 -101.76,146.25 -47.12,67.65 -94.25,135.28 -141.27,203 -5.54,7.97 -12.69,15.56 -12.83,25.92 -0.43,30.03 -0.4,60.07 -0.34,90.1 0.02,10.13 5.51,15.38 15.69,15.57 5.58,0.1 11.18,0.2 16.76,0.2 60.1,0.02 120.2,0.01 180.3,0.01z"/>
  <path class="fil0" d="M1262.89 4154.7c0,-34.23 0,-68.46 0,-102.69 -0.01,-58.68 0.06,-117.36 -0.05,-176.04 -0.05,-27.91 -1.43,-29.19 -29.98,-29.34 -23.76,-0.13 -47.52,-0.07 -71.28,-0.03 -34.59,0.06 -34.64,0.08 -34.64,35.14 -0.02,181.62 -0.01,363.25 0,544.88 0,4.89 -0.13,9.79 0.09,14.67 0.79,17.64 3.11,20.18 21.46,20.39 28.64,0.34 57.29,0.2 85.94,0.1 27.27,-0.09 28.21,-1.12 28.44,-28.35 0.04,-4.89 0.02,-9.78 0.02,-14.67 0,-88.02 0,-176.04 0,-264.06z"/>
  <path class="fil0" d="M2038.37 4154.67c0,-92.23 0.03,-184.46 -0.02,-276.69 -0.02,-30.59 -0.76,-31.27 -32.11,-31.37 -23.76,-0.08 -47.52,-0.07 -71.29,0 -32.12,0.1 -32.57,0.51 -32.57,33.01 -0.03,183.06 -0.01,366.11 -0.01,549.18 0,5.58 0.13,11.18 0.19,16.76 0.1,10.03 4.77,15.95 15.16,15.98 34.94,0.12 69.88,0.09 104.83,0.06 10.27,-0.01 15.37,-5.45 15.6,-15.57 0.14,-6.29 0.21,-12.58 0.21,-18.87 0.02,-90.83 0.01,-181.66 0.01,-272.49z"/>
  <path class="fil0" d="M4909.78 4093.98c-1.47,34.2 -17.07,51.04 -50.56,55.72 -39.56,5.54 -79.37,2.92 -119.06,2.35 -13.99,-0.2 -16.93,-3.88 -17.25,-18.15 -0.56,-25.09 -0.16,-50.2 -0.16,-75.29l-0.06 0c0,-23.7 -0.38,-47.41 0.12,-71.11 0.39,-17.87 3.02,-20.61 21.01,-20.78 35.56,-0.34 71.15,-0.75 106.67,0.45 40.49,1.36 58.43,19.89 59.53,59.9 0.62,22.29 0.72,44.64 -0.24,66.91zm178.86 345.47c-39.84,-56.56 -79.82,-113 -119.6,-169.6 -11.74,-16.7 -11.65,-18.95 3.86,-27.62 41.73,-23.33 63.26,-59.66 70.18,-105.91 6.04,-40.34 2.1,-80.92 3.14,-121.38 0.44,-16.87 -1.89,-33.54 -5.22,-49.95 -10.08,-49.76 -38.48,-84.45 -86.52,-102.15 -25.74,-9.48 -52.37,-15.29 -79.88,-15.43 -84.56,-0.46 -169.13,-0.63 -253.7,-0.79 -34.08,-0.06 -34.26,0.18 -34.27,33.49 -0.03,183.07 -0.01,366.14 -0.01,549.21 0,4.2 -0.11,8.4 0.11,12.58 0.89,16.58 3.34,19.51 20.05,19.73 31.45,0.41 62.9,0.37 94.35,0.04 18.71,-0.19 21.04,-2.82 21.34,-22.61 0.31,-20.26 0.07,-40.52 0.1,-60.79 0.05,-30.04 -0.26,-60.1 0.34,-90.13 0.31,-15.66 3.14,-18.35 18.63,-18.89 17.45,-0.61 34.94,-0.05 52.41,-0.13 8.36,-0.03 14.78,3.36 19.61,10.1 4.88,6.82 9.94,13.51 14.79,20.35 34.4,48.42 69.02,96.68 102.97,145.42 8.44,12.13 18.3,17.34 33.19,17.05 39.13,-0.75 78.27,-0.18 117.41,-0.31 5.42,-0.01 11.21,1.33 17.3,-3.32 -1.32,-8.4 -6.62,-13.33 -10.58,-18.96z"/>
  <path class="fil0" d="M2493.75 4154.76c0,37.71 0.27,75.43 -0.07,113.14 -0.41,44.82 -21.43,69.92 -65.25,79.05 -27.13,5.66 -54.18,5.48 -80.98,-1.51 -37.26,-9.72 -57.16,-34.07 -57.42,-72.4 -0.53,-79.62 -0.55,-159.24 0.02,-238.85 0.27,-38.29 18.48,-61 55.47,-71.56 30.21,-8.63 60.72,-8.8 91,-0.33 37.27,10.42 56.36,34.46 57.01,73.04 0.67,39.79 0.15,79.61 0.15,119.42l0.07 0zm135.95 -124.83c-0.42,-88.57 -47.19,-151.25 -131.33,-178.35 -33.02,-10.63 -67,-14.21 -101.2,-14.61 -44.13,-0.51 -87.87,3.66 -129.41,20.7 -72.78,29.85 -113.28,88.98 -113.86,167.27 -0.32,42.59 -0.05,85.18 -0.07,127.77 0,41.89 -0.16,83.78 0.03,125.67 0.39,86.49 44.01,148.04 126.01,175.28 68.06,22.61 137.55,23.36 206.5,5.2 94.84,-24.97 143.21,-89.6 143.39,-188.06 0.15,-80.29 0.31,-160.58 -0.06,-240.87z"/>
  <path class="fil2" d="M5959.57 4329.44c-99.03,0 -179.3,-80.28 -179.3,-179.3 0,-99.03 80.27,-179.3 179.3,-179.3 99.03,0 179.3,80.27 179.3,179.3 0,99.02 -80.27,179.3 -179.3,179.3zm0 -510.08c-182.68,0 -330.78,148.09 -330.78,330.78 0,182.68 148.1,330.77 330.78,330.77 182.68,0 330.77,-148.09 330.77,-330.77 0,-182.69 -148.09,-330.78 -330.77,-330.78z"/>
  <path class="fil3" d="M5449.49 4329.44c-99.02,0 -179.3,-80.28 -179.3,-179.3 0,-99.03 80.28,-179.3 179.3,-179.3 99.03,0 179.3,80.27 179.3,179.3 0,99.02 -80.27,179.3 -179.3,179.3zm0 -510.08c-182.68,0 -330.77,148.09 -330.77,330.78 0,182.68 148.09,330.77 330.77,330.77 182.69,0 330.78,-148.09 330.78,-330.77 0,-182.69 -148.09,-330.78 -330.78,-330.78z"/>
  <path class="fil0" d="M2526.77 3684.7l-101.81 112.66c-3.45,3.82 -8.5,6.01 -13.81,6.01l-26.8 0c-14.17,0 -22.88,-14.62 -15.52,-26.05l72.61 -112.65c3.29,-5.12 9.17,-8.24 15.51,-8.24l56 0c15.5,0 23.88,17.15 13.82,28.27z"/>
  <line class="fil4 str0" x1="7299.58" y1="3469.62" x2="10.42" y2= "3469.62" />
 </g>
</svg>
