<svg xmlns="http://www.w3.org/2000/svg" version="1.1" xmlns:xlink="http://www.w3.org/1999/xlink" width="512" height="512" x="0" y="0" viewBox="0 0 64 64" style="enable-background:new 0 0 512 512" xml:space="preserve"><g><path d="M52 20a9.987 9.987 0 0 0-5 18.64V41a2.995 2.995 0 0 0 2 2.816V53a3.003 3.003 0 0 1-3 3H26a3.003 3.003 0 0 1-3-3v-9.184A2.995 2.995 0 0 0 25 41v-5.148A15.044 15.044 0 0 0 38 21v-2a1 1 0 0 0-1-1h-1V5a3.003 3.003 0 0 0-3-3h-4a3 3 0 0 0 0 6h1v10h-1a1 1 0 0 0-1 1v2a5.006 5.006 0 0 1-5 5h-6a5.006 5.006 0 0 1-5-5v-2a1 1 0 0 0-1-1h-1V8h1a3 3 0 0 0 0-6H7a3.003 3.003 0 0 0-3 3v13H3a1 1 0 0 0-1 1v2a15.044 15.044 0 0 0 13 14.852V41a2.995 2.995 0 0 0 2 2.816V53a9.01 9.01 0 0 0 9 9h20a9.01 9.01 0 0 0 9-9v-9.184A2.995 2.995 0 0 0 57 41v-2.362A9.986 9.986 0 0 0 52 20ZM31 6h-2a1 1 0 0 1 0-2h4a1.001 1.001 0 0 1 1 1v13h-2V7a1 1 0 0 0-1-1ZM6 5a1.001 1.001 0 0 1 1-1h4a1 1 0 0 1 0 2H9a1 1 0 0 0-1 1v11H6Zm11 36v-6.05a1 1 0 0 0-.93-.998A13.031 13.031 0 0 1 4 21v-1h6v1a7.008 7.008 0 0 0 7 7h6a7.008 7.008 0 0 0 7-7v-1h6v1a13.031 13.031 0 0 1-12.07 12.952 1 1 0 0 0-.93.998V41a1.001 1.001 0 0 1-1 1h-4a1.001 1.001 0 0 1-1-1Zm36 12a7.008 7.008 0 0 1-7 7H26a7.008 7.008 0 0 1-7-7v-9h2v9a5.006 5.006 0 0 0 5 5h20a5.006 5.006 0 0 0 5-5v-9h2Zm2-12a1.001 1.001 0 0 1-1 1h-4a1.001 1.001 0 0 1-1-1v-5.812a5.95 5.95 0 0 0 6 0Zm-3-7a4 4 0 1 1 4-4 4.004 4.004 0 0 1-4 4Zm5 2.23v-2.92a6 6 0 1 0-10 0v2.917a7.997 7.997 0 1 1 10 .004Z" fill="#ffffff" opacity="1" data-original="#000000"></path><path d="M23 32a1 1 0 0 1 0-2c.305 0 .604-.015.901-.044a1 1 0 1 1 .198 1.99Q23.557 32 23 32ZM28.001 30.662a1 1 0 0 1-.502-1.866 8.984 8.984 0 0 0 4.089-5.096 1 1 0 1 1 1.908.6 10.982 10.982 0 0 1-4.995 6.228.996.996 0 0 1-.5.134Z" fill="#ffffff" opacity="1" data-original="#000000"></path></g></svg>