<svg xmlns="http://www.w3.org/2000/svg" version="1.1" xmlns:xlink="http://www.w3.org/1999/xlink" width="512" height="512" x="0" y="0" viewBox="0 0 682.667 682.667" style="enable-background:new 0 0 512 512" xml:space="preserve"><g><defs><clipPath id="a" clipPathUnits="userSpaceOnUse"><path d="M0 512h512V0H0Z" fill="#ffffff" opacity="1" data-original="#000000"></path></clipPath></defs><g clip-path="url(#a)" transform="matrix(1.33333 0 0 -1.33333 0 682.667)"><path d="M0 0a54.521 54.521 0 0 0-19.208 12.052c-21.721 21.001-22.306 55.634-1.305 77.355L94.292 208.154c21 21.721 55.632 22.306 77.354 1.305a54.604 54.604 0 0 0 11.092-15.206" style="stroke-width:15;stroke-linecap:round;stroke-linejoin:round;stroke-miterlimit:10;stroke-dasharray:none;stroke-opacity:1" transform="translate(139.24 160.697)" fill="none" stroke="#ffffff" stroke-width="15" stroke-linecap="round" stroke-linejoin="round" stroke-miterlimit="10" stroke-dasharray="none" stroke-opacity="" data-original="#000000" opacity="1"></path><path d="M0 0h82.585c30.213 0 54.706-24.493 54.706-54.706 0-30.213-24.493-54.706-54.706-54.706h-165.17c-5.88 0-11.543.928-16.852 2.645" style="stroke-width:15;stroke-linecap:round;stroke-linejoin:round;stroke-miterlimit:10;stroke-dasharray:none;stroke-opacity:1" transform="translate(294.957 270.112)" fill="none" stroke="#ffffff" stroke-width="15" stroke-linecap="round" stroke-linejoin="round" stroke-miterlimit="10" stroke-dasharray="none" stroke-opacity="" data-original="#000000" opacity="1"></path><path d="m0 0-290.125-310.523c-73.888 81.31-74.178 207.077 2.158 288.779C-211.632 59.958-86.136 68.201 0 0Zm-50.289-364.227c-69.749-28.95-152.086-19.449-214.053 29.615L25.783-24.089c73.887-81.31 74.177-207.077-2.158-288.779-12.044-12.891-25.312-23.954-39.457-33.175m-27.163-14.994a214.649 214.649 0 0 0-7.294-3.19M-290.712 24.085a251.167 251.167 0 0 1-23.038-21.74c-93.695-100.283-88.355-257.534 11.928-351.23 100.283-93.695 257.534-88.355 351.23 11.928 93.695 100.284 88.355 257.535-11.929 351.23-84.852 79.278-210.489 87.654-303.902 27.605" style="stroke-width:15;stroke-linecap:round;stroke-linejoin:round;stroke-miterlimit:10;stroke-dasharray:none;stroke-opacity:1" transform="translate(388.17 423.306)" fill="none" stroke="#ffffff" stroke-width="15" stroke-linecap="round" stroke-linejoin="round" stroke-miterlimit="10" stroke-dasharray="none" stroke-opacity="" data-original="#000000" opacity="1"></path><path d="m0 0 54.31-52.507" style="stroke-width:15;stroke-linecap:round;stroke-linejoin:round;stroke-miterlimit:10;stroke-dasharray:none;stroke-opacity:1" transform="translate(176.963 310.339)" fill="none" stroke="#ffffff" stroke-width="15" stroke-linecap="round" stroke-linejoin="round" stroke-miterlimit="10" stroke-dasharray="none" stroke-opacity="" data-original="#000000" opacity="1"></path><path d="M0 0v-104.569" style="stroke-width:15;stroke-linecap:round;stroke-linejoin:round;stroke-miterlimit:10;stroke-dasharray:none;stroke-opacity:1" transform="translate(298.378 265.269)" fill="none" stroke="#ffffff" stroke-width="15" stroke-linecap="round" stroke-linejoin="round" stroke-miterlimit="10" stroke-dasharray="none" stroke-opacity="" data-original="#000000" opacity="1"></path></g></g></svg>