<svg xmlns="http://www.w3.org/2000/svg" version="1.1" xmlns:xlink="http://www.w3.org/1999/xlink" width="512" height="512" x="0" y="0" viewBox="0 0 512 512" style="enable-background:new 0 0 512 512" xml:space="preserve"><g><path d="M466.98 211H355.507l63.765-97.599c14.546-21.606 16.934-49.805 6.24-73.594a14.993 14.993 0 0 0-11.47-8.687c-5.083-.615-10.137 1.128-13.506 4.966C301.044 149.979 214.867 241 181 241v210h39.023c21.577 19.395 49.175 30 78.398 30H409.73c19.79 0 37.046-12.686 42.935-31.582l57.25-180C518.978 240.444 497.375 211 466.98 211zM15 481h121c8.284 0 15-6.716 15-15V241H15c-8.284 0-15 6.714-15 15v210c0 8.284 6.716 15 15 15zm91-180c8.284 0 15 6.714 15 15 0 8.284-6.716 15-15 15s-15-6.716-15-15c0-8.285 6.716-15 15-15z" fill="#ffffff" opacity="1" data-original="#000000"></path></g></svg>