<svg xmlns="http://www.w3.org/2000/svg" version="1.1" xmlns:xlink="http://www.w3.org/1999/xlink" width="512" height="512" x="0" y="0" viewBox="0 0 60 60" style="enable-background:new 0 0 512 512" xml:space="preserve" class=""><g><path d="m41.482 38.863.837-.7-1.151-1.377a17.017 17.017 0 0 1-1.568 1.233l1.19 1.423zM18 55a1 1 0 0 0 1 1h22a1 1 0 0 0 0-2H19a1 1 0 0 0-1 1zM26.038 47a8.208 8.208 0 0 1-1.556 5h11.036a8.208 8.208 0 0 1-1.556-5zM52.959 54.64a2.009 2.009 0 0 0 1.46-.458 2 2 0 0 0 .25-2.816l-10.3-12.308-1.759 1.467-1.311 1.1 10.3 12.31a1.985 1.985 0 0 0 1.36.705z" fill="#ffffff" opacity="1" data-original="#000000" class=""></path><path d="M53 4H7a5.006 5.006 0 0 0-5 5v31a5.006 5.006 0 0 0 5 5h34.521l-1.753-2.095a1.994 1.994 0 0 1-.337-1.966L37.86 39.06a17.118 17.118 0 1 1 4.74-3.684l1.435 1.716a2.05 2.05 0 0 1 .514-.03 1.986 1.986 0 0 1 1.357.709L51.952 45H53a5.006 5.006 0 0 0 5-5V9a5.006 5.006 0 0 0-5-5z" fill="#ffffff" opacity="1" data-original="#000000" class=""></path><path d="M30 9a15 15 0 1 0 15 15A15.017 15.017 0 0 0 30 9zm0 28a13 13 0 1 1 13-13 13.015 13.015 0 0 1-13 13z" fill="#ffffff" opacity="1" data-original="#000000" class=""></path><circle cx="30" cy="24" r="11" fill="#ffffff" opacity="1" data-original="#000000" class=""></circle></g></svg>