<svg xmlns="http://www.w3.org/2000/svg" version="1.1" xmlns:xlink="http://www.w3.org/1999/xlink" width="512" height="512" x="0" y="0" viewBox="0 0 64 64" style="enable-background:new 0 0 512 512" xml:space="preserve" class=""><g><path d="M36.535 14.1c-5.841 5.262.789 12.856 6.767 8.095 5.846-5.278-.8-12.83-6.767-8.095z" fill="#2a81a9" opacity="1" data-original="#000000" class=""></path><path d="M46 32.84a3.74 3.74 0 0 0-1.41-2.55l-9.45-7.7c-.013-.003-2.393-2.054-2.39-2.07-1.283-1.31-1.356-3.469-1.54-5.18A1.176 1.176 0 0 1 32 14.1l7.25-2.45a3.928 3.928 0 0 0-2.4-7.48L26.81 7.2a4.974 4.974 0 0 0-3.54 4.78v11.4l-5.24 31.87a3.94 3.94 0 0 0 7.71 1.59l3.19-13.06 4.58 13.41c1.947 5.196 9.606 2.48 7.79-2.79l-3.62-9.62 7.5-9.15a3.753 3.753 0 0 0 .82-2.79zm-12.07-1.91 3.79 3.03-2.83 3.4c-.782-1.991-1.593-4.342-.96-6.43z" fill="#2a81a9" opacity="1" data-original="#000000" class=""></path></g></svg>