<svg xmlns="http://www.w3.org/2000/svg" version="1.1" xmlns:xlink="http://www.w3.org/1999/xlink" width="512" height="512" x="0" y="0" viewBox="0 0 460.624 460.624" style="enable-background:new 0 0 512 512" xml:space="preserve" class=""><g><path d="M418.83 56.396c-26.624-26.112-61.952-40.96-99.328-40.96-32.256 0-64 10.752-89.088 31.232C169.486-2.484 80.398 6.732 31.246 67.66c-36.352 45.056-41.472 108.544-12.8 158.72h68.608l71.168-123.392L204.814 244.3l52.224-92.672 44.032 75.264h41.984c8.704 0 15.36 6.656 15.36 15.36s-6.656 15.36-15.36 15.36h-59.392L257.55 213.58l-60.416 105.984L150.03 177.74l-45.568 79.36H41.998l188.416 188.416 189.44-189.44c54.784-55.296 54.272-144.896-1.024-199.68z" fill="#2a81a9" opacity="1" data-original="#000000" class=""></path></g></svg>