<svg xmlns="http://www.w3.org/2000/svg" version="1.1" xmlns:xlink="http://www.w3.org/1999/xlink" width="512" height="512" x="0" y="0" viewBox="0 0 500 500" style="enable-background:new 0 0 512 512" xml:space="preserve" class=""><g><path fill-rule="evenodd" d="m346.4 291.53-16.6-27.64h-22.53l-16.6 27.64 12.61 8.82c2.48 1.44 3.97 4.29 3.52 7.3l-16.49 109.63 29.34 41.57 27.16-41.3-16.53-109.9h.02c-.39-2.61.68-5.33 2.99-6.94zM240.39 119.84c3.35 19.82 12.52 37.42 24.98 50.37 3.92 4.08 8.17 7.69 12.65 10.75l.03.02c10.5 7.17 22.3 11.34 34.36 11.51 17.5.25 36.62-3.37 52.58-14.17 12.7-8.59 23.49-21.82 30-41.44 1.19-3.59 2.23-7.52 3.16-11.8.85-3.94 1.55-7.99 2.14-12.16-9.03-4.49-17.01-11.76-23.36-20.95-5.97-8.63-10.53-18.98-13.18-30.29-14.86 4.17-31.25 6.23-47 6.55-16.65.34-32.68-1.26-45.51-4.37-1.49 10.55-4.77 19.91-8.96 28.03-6.22 12.06-14.46 21.41-21.89 27.95zm66.14 129.65h27.02l30.25-35.97-4.55-15.64c-15.24 6.76-31.7 9.18-47 8.96-11.56-.16-22.84-3.22-33.26-8.61l-3.05 14.86zm-192.09 54.62c-.89 3.87-4.74 6.29-8.61 5.4s-6.29-4.74-5.4-8.61c2.28-9.91 9.52-23.9 20.18-39.69 6.07-8.98 13.32-18.67 21.45-28.6-9.22 2.81-18.68 5.15-28.38 7-22.92 4.39-47.21 6.09-72.85 5.12a7.177 7.177 0 0 1-6.92-7.43 7.177 7.177 0 0 1 7.43-6.92c24.51.93 47.73-.7 69.64-4.9 21.82-4.17 42.32-10.88 61.5-20.13.13-.06.25-.12.38-.17V54.32c0-6.5-3.41-10.61-7.77-12.36-1.8-.72-3.8-1.08-5.84-1.08s-4.04.36-5.84 1.08c-4.36 1.75-7.77 5.86-7.77 12.36v119.07c0 3.98-3.22 7.2-7.2 7.2s-7.2-3.22-7.2-7.2V21.12c0-6.5-3.41-10.61-7.77-12.36-1.8-.72-3.8-1.08-5.84-1.08s-4.04.36-5.84 1.08c-4.36 1.75-7.77 5.86-7.77 12.36v156.31c0 3.98-3.22 7.2-7.2 7.2s-7.2-3.22-7.2-7.2V60.45c0-6.5-3.41-10.61-7.77-12.36-1.8-.72-3.8-1.08-5.84-1.08s-4.04.36-5.84 1.08c-4.36 1.75-7.77 5.86-7.77 12.36v133.16c0 3.98-3.22 7.2-7.2 7.2s-7.2-3.22-7.2-7.2v-74.63c0-6.5-3.41-10.61-7.77-12.36-1.8-.72-3.8-1.08-5.84-1.08s-4.04.36-5.84 1.08c-4.36 1.75-7.77 5.86-7.77 12.36v61.76c0 5.97-.08 17.8-.14 28.65-.28 44.68-.43 68.37 8.33 89.79 9.59 23.44 30.32 40.64 54.76 49.99 17.29 6.61 36.36 9.27 54.64 7.41 18.07-1.83 35.34-8.08 49.29-19.29 16.57-13.32 28.55-33.79 31.7-62.41.98-8.95 1.51-23.08 1.62-39.46.04-5.83.02-11.95-.04-18.24v-.05a7.87 7.87 0 0 1-.01-.97c-.14-12.01-.46-24.59-.96-36.86-.31-7.66-5.84-13.03-12.37-15.49-2.54-.96-5.18-1.48-7.7-1.54-2.41-.05-4.71.3-6.68 1.09-3.46 1.39-5.95 4.5-5.95 9.58V254.65c0 3.98-3.22 7.2-7.2 7.2s-7.2-3.22-7.2-7.2v-33.64c-1.01.45-2.01.9-3.03 1.34-14.6 16.05-27.49 32.35-37.3 46.89-9.73 14.42-16.23 26.74-18.1 34.87zM401.92 97.28c-4.91-3.37-9.38-7.96-13.18-13.46-6.16-8.9-10.54-20.11-12.32-32.41a7.187 7.187 0 0 0-8.13-6.1c-.59.08-1.16.24-1.69.45-15.25 5.25-33.06 7.78-50.14 8.13-18.98.39-36.9-1.91-49.28-6.14-3.76-1.27-7.84.74-9.11 4.5-.27.79-.39 1.59-.38 2.38-.52 11.81-3.74 22.06-8.19 30.68-3.19 6.19-7.02 11.54-10.95 16.04-2.37-33.48-1.07-58.69 8.9-75.28C258.04 8.48 279.51-.19 318.64 0c4.94.02 10.03.3 15.21.91 17.78 2.07 35.06 8.05 47.69 20.9 12.7 12.93 20.99 33.11 20.84 63.74-.02 3.72-.17 7.63-.46 11.73zM218.07 324.2c8.01-13.04 13.53-28.9 15.6-47.8 1.02-9.26 1.56-23.91 1.67-40.92.03-3.94.03-8.01.01-12.17 3.79-.23 7.66-.41 11.61-.55 5.31-.18 11.34-.29 18.11-.31l29.36 34.92-19.53 32.51h.01a7.17 7.17 0 0 0 2.05 9.56l14.94 10.45-16.26 108.09h.01c-.26 1.76.12 3.63 1.23 5.2l37.08 52.55.01-.01c.5.72 1.15 1.35 1.93 1.87 3.31 2.17 7.76 1.26 9.93-2.05l34.15-51.92a7.19 7.19 0 0 0 1.46-5.52l-16.27-108.2 14.69-10.28a7.175 7.175 0 0 0 2.3-9.74l-18.27-30.42 31.04-36.92c30.34 1.34 57.35 10.02 76.27 26.21 17.4 14.88 28.01 36.37 28.01 64.62 0 2.04.05 15.79.1 36.05.07 26.27.15 58.33.08 82.27-.01 4.46-1.85 8.51-4.81 11.46a16.26 16.26 0 0 1-11.51 4.76H426.3V303.63c0-3.98-3.22-7.2-7.2-7.2s-7.2 3.22-7.2 7.2v173.62c0 6.26-2.56 11.95-6.68 16.07s-9.81 6.68-16.07 6.68H250.51c-6.26 0-11.95-2.56-16.07-6.68s-6.68-9.81-6.68-16.07V354.01h-.03c.01-5.61-1.29-11.34-3.52-17.15-1.63-4.23-3.73-8.45-6.14-12.66z" clip-rule="evenodd" fill="#ffffff" opacity="1" data-original="#000000" class=""></path></g></svg>