<svg xmlns="http://www.w3.org/2000/svg" version="1.1" xmlns:xlink="http://www.w3.org/1999/xlink" width="512" height="512" x="0" y="0" viewBox="0 0 512 512" style="enable-background:new 0 0 512 512" xml:space="preserve" class=""><g><path d="m376.253 191.801 10.605-10.605c17.547-17.547 17.547-46.093 0-63.64s-46.093-17.547-63.64 0l-10.605 10.605L206.545 22.095 185.332 43.31l21.213 21.213-22.507 108.066 148.493 148.493 107.358-23.215 21.215 21.215 21.215-21.215-106.066-106.066zM461.107 64.52l-42.425 42.426-21.213-21.212 42.426-42.426zM424.544 145.764l63.64-21.21 9.486 28.463-63.64 21.211zM330.2 70.386l28.463 9.486 21.213-70.385L351.412 0zM290.097 405.928l63.639 63.638-42.426 42.425-63.638-63.638zM162.825 448.36l21.213 21.213 127.28-127.279-148.493-148.493-127.278 127.28 21.212 21.213-42.427 42.426L120.4 490.787z" fill="#ffffff" opacity="1" data-original="#000000" class=""></path></g></svg>