<svg xmlns="http://www.w3.org/2000/svg" version="1.1" xmlns:xlink="http://www.w3.org/1999/xlink" width="512" height="512" x="0" y="0" viewBox="0 0 48 48" style="enable-background:new 0 0 512 512" xml:space="preserve" class=""><g><path d="M42 25.101C42.944 14.488 34.81 4.938 24 5 14.075 5 6 13.075 6 23v2.101A5.01 5.01 0 0 0 2 30v8c0 2.757 2.243 5 5 5h4a1 1 0 0 0 1-1c-.01-2.156.007-17.265 0-19 0-6.617 5.383-12 12-12s12 5.383 12 12c-.014 1.657.01 16.929 0 19a1 1 0 0 0 1 1h4c2.757 0 5-2.243 5-5v-8a5.01 5.01 0 0 0-4-4.899zM10 41H7c-1.654 0-3-1.346-3-3v-8c0-1.654 1.346-3 3-3h3zM24 9c-8.656.004-14.805 7.552-14 16H8c-.883-9.476 6.328-18.058 16-18 9.671-.057 16.884 8.524 16 18h-2c.804-8.448-5.343-15.997-14-16zm20 29c0 1.654-1.346 3-3 3h-3V27h3c1.654 0 3 1.346 3 3z" fill="#ffffff" opacity="1" data-original="#000000"></path><path d="M25 41V27c-.005-1.303-1.994-1.311-2 0v14c.005 1.303 1.994 1.311 2 0zM20 38v-8c-.005-1.305-1.994-1.31-2 0v8c.005 1.305 1.994 1.31 2 0zM30 38v-8c-.005-1.305-1.994-1.31-2 0v8c.005 1.305 1.994 1.31 2 0z" fill="#ffffff" opacity="1" data-original="#000000"></path></g></svg>