<svg xmlns="http://www.w3.org/2000/svg" version="1.1" xmlns:xlink="http://www.w3.org/1999/xlink" width="512" height="512" x="0" y="0" viewBox="0 0 36 36" style="enable-background:new 0 0 512 512" xml:space="preserve" class=""><g><path d="M28.67 34H7.33a3.2 3.2 0 0 1-3.2-3.2V9.28A3.18 3.18 0 0 1 5.07 7l4.08-4.06A3.17 3.17 0 0 1 11.42 2h17.25a3.22 3.22 0 0 1 2.26.94 3.18 3.18 0 0 1 .94 2.26v25.6a3.18 3.18 0 0 1-.94 2.26 3.22 3.22 0 0 1-2.26.94zM11.42 4.13a1.06 1.06 0 0 0-.75.31L6.58 8.53a1.08 1.08 0 0 0-.31.75V30.8a1.07 1.07 0 0 0 1.07 1.07h21.33a1.07 1.07 0 0 0 1.07-1.07V5.2a1.06 1.06 0 0 0-.31-.75 1.07 1.07 0 0 0-.75-.31z" fill="#ffffff" opacity="1" data-original="#000000" class=""></path><path d="M12.55 15.24a1.06 1.06 0 0 1-.75-.31l-2-2 1.51-1.51 1.26 1.26 2.27-2.27 1.51 1.51-3 3a1.06 1.06 0 0 1-.8.32zM18 11.6h7.47v2.13H18zM18 18h7.47v2.13H18zM11.6 18h2.13v2.13H11.6zM18 24.4h7.47v2.13H18zM11.6 24.4h2.13v2.13H11.6z" fill="#ffffff" opacity="1" data-original="#000000" class=""></path></g></svg>