<svg xmlns="http://www.w3.org/2000/svg" version="1.1" xmlns:xlink="http://www.w3.org/1999/xlink" width="512" height="512" x="0" y="0" viewBox="0 0 100 100" style="enable-background:new 0 0 512 512" xml:space="preserve" class=""><g><path d="M67 95H13a7.87 7.87 0 0 1-8-7.76v-61a1.89 1.89 0 0 1 .51-1.32L25.23 5.51A2.14 2.14 0 0 1 26.56 5H67a7.86 7.86 0 0 1 7.86 7.86v20.2l6.85-11.94a6.22 6.22 0 0 1 8.58-2.24 6 6 0 0 1 2.25 8.36l-.82 1.43.72.41A5 5 0 0 1 94.3 36L84.08 53.78a1.77 1.77 0 0 1-2.45.71 2 2 0 0 1-.72-2.49l10.22-17.82a1.27 1.27 0 0 0-.41-1.94l-.82-.51C82.14 45.41 74.27 59 66.4 72.55a1.6 1.6 0 0 1-.61.61l-8.17 5.31c-3.27 2.14-9.91-1.47-12.77-3.37-.72-.51-1.64-1.63-2.15-.81-5 8.16-8.07 5.2-9-3-.61-5.82-1.33-2.45-3.27 1.22-1.74 3.47-3.78 7.35-9.5 6.12a1.82 1.82 0 0 1-1.43-2.14 1.73 1.73 0 0 1 2.14-1.33c3 .62 3.78-.61 5.62-4.28 4.19-8.16 8.69-11.43 10 0 .4 3.77.1 5.3 2.45 1.43 2-3.27 4.6-2 7.15-.21 1.94 1.33 4.39 3.06 8.07 3.27l.41-8.17a1.93 1.93 0 0 1 .2-.81l15.77-27.21V12.86A4.31 4.31 0 0 0 67 8.57H27.68V20.1A7.73 7.73 0 0 1 20 27.86H8.58v59.38A4.32 4.32 0 0 0 13 91.43h54a4.3 4.3 0 0 0 4.29-4.19V70.51a1.84 1.84 0 0 1 1.84-1.84 1.81 1.81 0 0 1 1.73 1.84v16.73A7.84 7.84 0 0 1 67 95Zm-8-27.14-.31 5.71 4.9-3.16L83.87 35.2l-4.59-2.65Zm22-38.37 4.6 2.65 3.78-6.63a2.61 2.61 0 1 0-4.49-2.65Zm-69.78-5.2H20a4.12 4.12 0 0 0 4.09-4.19v-8.47Zm43.32 29H21.86A1.82 1.82 0 0 1 20 51.53a1.84 1.84 0 0 1 1.84-1.84h32.71a1.82 1.82 0 0 1 1.74 1.84 1.8 1.8 0 0 1-1.74 1.74Zm0-12.66H38.92a1.81 1.81 0 0 1-1.84-1.73 1.84 1.84 0 0 1 1.84-1.9h15.63a1.82 1.82 0 0 1 1.74 1.84 1.79 1.79 0 0 1-1.74 1.73Zm0-12.65H38.92a1.79 1.79 0 1 1 0-3.57h15.63a1.79 1.79 0 0 1 0 3.57Z" fill="#ffffff" opacity="1" data-original="#000000" class=""></path></g></svg>