<svg xmlns="http://www.w3.org/2000/svg" version="1.1" xmlns:xlink="http://www.w3.org/1999/xlink" width="512" height="512" x="0" y="0" viewBox="0 0 682.667 682.667" style="enable-background:new 0 0 512 512" xml:space="preserve" class=""><g><defs><clipPath id="a" clipPathUnits="userSpaceOnUse"><path d="M0 512h512V0H0Z" fill="#ffffff" opacity="1" data-original="#000000" class=""></path></clipPath></defs><g clip-path="url(#a)" transform="matrix(1.33333 0 0 -1.33333 0 682.667)"><path d="M0 0h186v-63h33c16.568 0 30-13.432 30-30 0-16.568-13.432-30-30-30h-33v-63" style="stroke-width:20;stroke-linecap:round;stroke-linejoin:round;stroke-miterlimit:10;stroke-dasharray:none;stroke-opacity:1" transform="translate(10 196)" fill="none" stroke="#ffffff" stroke-width="20" stroke-linecap="round" stroke-linejoin="round" stroke-miterlimit="10" stroke-dasharray="none" stroke-opacity="" data-original="#000000" opacity="1"></path><path d="M0 0v30c0 16.568 13.432 30 30 30 16.568 0 30-13.432 30-30V0h63.001L123-186h-372v372h63v30c0 16.569 13.432 30 30 30 16.568 0 30-13.431 30-30v-30h63v-63h-33c-16.568 0-30-13.431-30-30 0-16.568 13.432-30 30-30h33V0Z" style="stroke-width:20;stroke-linecap:round;stroke-linejoin:round;stroke-miterlimit:10;stroke-dasharray:none;stroke-opacity:1" transform="translate(259 196)" fill="none" stroke="#ffffff" stroke-width="20" stroke-linecap="round" stroke-linejoin="round" stroke-miterlimit="10" stroke-dasharray="none" stroke-opacity="" data-original="#000000" opacity="1"></path><path d="M0 0v-63h-30c-16.568 0-30-13.431-30-30 0-16.568 13.432-30 30-30H0v-63h63v33c0 16.569 13.432 30 30 30 16.568 0 30-13.431 30-30v-33h63V0Z" style="fill-opacity:1;fill-rule:nonzero;stroke:none" transform="translate(316 502)" fill="#ffffff" data-original="#000000" opacity="1" class=""></path><path d="M0 0v-63h-30c-16.568 0-30-13.431-30-30 0-16.568 13.432-30 30-30H0v-63h63v33c0 16.569 13.432 30 30 30 16.568 0 30-13.431 30-30v-33h63V0Z" style="stroke-width:20;stroke-linecap:round;stroke-linejoin:round;stroke-miterlimit:10;stroke-dasharray:none;stroke-opacity:1" transform="translate(316 502)" fill="none" stroke="#ffffff" stroke-width="20" stroke-linecap="round" stroke-linejoin="round" stroke-miterlimit="10" stroke-dasharray="none" stroke-opacity="" data-original="#000000" opacity="1"></path></g></g></svg>